<?xml version="1.0" encoding="utf-8"?>
<!-- Generator: Adobe Illustrator 27.0.0, SVG Export Plug-In . SVG Version: 6.00 Build 0)  -->
<svg version="1.1" id="Layer_1" xmlns="http://www.w3.org/2000/svg" xmlns:xlink="http://www.w3.org/1999/xlink" x="0px" y="0px"
	 viewBox="0 0 1366 768" style="enable-background:new 0 0 1366 768;" xml:space="preserve">
<style type="text/css">
	.st0{fill:#FF157E;stroke:#000000;stroke-miterlimit:10;}
	.st1{fill:#2AC6FF;stroke:#000000;stroke-miterlimit:10;}
	.st2{fill:#0014B4;stroke:#000000;stroke-miterlimit:10;}
	.st3{fill:#FCFF35;stroke:#000000;stroke-miterlimit:10;}
	.st4{font-family:'CooperBlack';}
	.st5{font-size:121.3418px;}
</style>
<rect x="202.34" y="134.71" transform="matrix(-0.4683 -0.8835 0.8835 -0.4683 38.4548 627.4607)" class="st0" width="11.34" height="334.91"/>
<rect x="213.68" y="150.91" transform="matrix(-0.4683 -0.8835 0.8835 -0.4683 40.7926 661.2708)" class="st0" width="11.34" height="334.91"/>
<rect x="233.86" y="225.69" transform="matrix(-1 -1.224647e-16 1.224647e-16 -1 479.0663 721.9419)" class="st1" width="11.34" height="270.57"/>
<rect x="272.75" y="162.5" transform="matrix(-1 -1.224647e-16 1.224647e-16 -1 560.0749 606.9097)" class="st1" width="14.58" height="281.91"/>
<rect x="62.12" y="415.25" transform="matrix(-1 -1.224647e-16 1.224647e-16 -1 406.1587 843.4547)" class="st2" width="281.91" height="12.96"/>
<rect x="20" y="439.55" transform="matrix(-1 -1.224647e-16 1.224647e-16 -1 364.0342 892.0599)" class="st2" width="324.03" height="12.96"/>
<polygon class="st3" points="373.2,369.76 373.2,428.25 433.14,428.25 433.14,294.94 350.51,246.1 352.14,214.35 463.34,279.52 
	463.93,279.52 463.93,279.86 494.71,297.9 494.71,331.33 463.93,313.13 463.93,453.32 447.73,453.32 433.14,453.32 373.2,453.32 
	334.31,453.32 334.31,428.25 334.31,369.76 "/>
<text transform="matrix(0.6818 0 0 1 523.9727 452.249)" class="st4 st5">Trainingkerja.com</text>
</svg>
